<svg width="20" height="20" viewBox="0 0 20 20" fill="none" xmlns="http://www.w3.org/2000/svg">
<path d="M18.3334 7.0835H1.66675M1.66675 10.4168H4.62231C5.07247 10.4168 5.29755 10.4168 5.51519 10.4556C5.70838 10.4901 5.89683 10.5471 6.07667 10.6256C6.27928 10.7141 6.46656 10.8389 6.84111 11.0886L7.32572 11.4117C7.70027 11.6614 7.88755 11.7863 8.09016 11.8747C8.27 11.9532 8.45845 12.0103 8.65164 12.0447C8.86928 12.0835 9.09436 12.0835 9.54452 12.0835H10.4556C10.9058 12.0835 11.1309 12.0835 11.3485 12.0447C11.5417 12.0103 11.7302 11.9532 11.91 11.8747C12.1126 11.7863 12.2999 11.6614 12.6744 11.4117L13.1591 11.0886C13.5336 10.8389 13.7209 10.7141 13.9235 10.6256C14.1033 10.5471 14.2918 10.4901 14.485 10.4556C14.7026 10.4168 14.9277 10.4168 15.3779 10.4168H18.3334M1.66675 6.00016L1.66675 14.0002C1.66675 14.9336 1.66675 15.4003 1.8484 15.7568C2.00819 16.0704 2.26316 16.3254 2.57676 16.4852C2.93328 16.6668 3.39999 16.6668 4.33341 16.6668L15.6667 16.6668C16.6002 16.6668 17.0669 16.6668 17.4234 16.4852C17.737 16.3254 17.992 16.0704 18.1518 15.7568C18.3334 15.4003 18.3334 14.9336 18.3334 14.0002V6.00016C18.3334 5.06674 18.3334 4.60003 18.1518 4.24351C17.992 3.92991 17.737 3.67494 17.4234 3.51515C17.0669 3.3335 16.6002 3.3335 15.6667 3.3335L4.33342 3.3335C3.39999 3.3335 2.93328 3.3335 2.57676 3.51515C2.26316 3.67494 2.00819 3.92991 1.8484 4.24351C1.66675 4.60003 1.66675 5.06674 1.66675 6.00016Z" stroke="#A4A7AE" stroke-width="1.66667" stroke-linecap="round" stroke-linejoin="round"/>
</svg>
