<svg width="13" height="12" viewBox="0 0 13 12" fill="none" xmlns="http://www.w3.org/2000/svg">
<g clip-path="url(#clip0_213_12610)">
<path d="M5.40242 4.5C5.51997 4.16583 5.752 3.88405 6.0574 3.70457C6.3628 3.52508 6.72187 3.45947 7.07101 3.51936C7.42015 3.57924 7.73683 3.76076 7.96496 4.03176C8.19309 4.30277 8.31795 4.64576 8.31742 5C8.31742 6 6.81742 6.5 6.81742 6.5M6.85742 8.5H6.86242M11.8574 6C11.8574 8.76142 9.61885 11 6.85742 11C4.096 11 1.85742 8.76142 1.85742 6C1.85742 3.23858 4.096 1 6.85742 1C9.61885 1 11.8574 3.23858 11.8574 6Z" stroke="#F04438" stroke-width="1.5" stroke-linecap="round" stroke-linejoin="round"/>
</g>
<defs>
<clipPath id="clip0_213_12610">
<rect width="12" height="12" fill="white" transform="translate(0.857422)"/>
</clipPath>
</defs>
</svg>
