<svg width="17" height="16" viewBox="0 0 17 16" fill="none" xmlns="http://www.w3.org/2000/svg">
<path d="M8.66987 3.19995C7.77004 3.20011 6.88715 3.43615 6.11535 3.88288C5.34355 4.32961 4.7118 4.97028 4.2875 5.73655C3.8632 6.50282 3.66225 7.36594 3.7061 8.23385C3.74995 9.10176 4.03695 9.9419 4.53648 10.6646C5.03601 11.3874 5.72933 11.9656 6.5425 12.3377C7.35566 12.7097 8.25816 12.8617 9.15372 12.7772C10.0493 12.6928 10.9043 12.3752 11.6276 11.8583C12.3509 11.3414 12.9153 10.6446 13.2607 9.84219C13.4302 9.44859 13.0241 9.05307 12.6155 9.21339C11.9152 9.48731 11.1377 9.51558 10.4181 9.29328C9.69849 9.07097 9.08231 8.61215 8.6767 7.9966C8.27109 7.38105 8.1017 6.64768 8.19798 5.92402C8.29426 5.20036 8.65013 4.53217 9.20371 4.03563L9.24198 3.99723C9.51586 3.69483 9.29815 3.20379 8.86521 3.20379H8.73299L8.69919 3.20091L8.66937 3.19995H8.66987Z" fill="#717680"/>
</svg>
