<svg width="16" height="16" viewBox="0 0 16 16" fill="none" xmlns="http://www.w3.org/2000/svg">
<path d="M8.00016 12.6665C8.16345 12.6665 8.32105 12.7265 8.44308 12.835C8.5651 12.9435 8.64306 13.093 8.66216 13.2552L8.66683 13.3332V13.9998C8.66664 14.1698 8.60158 14.3332 8.48493 14.4567C8.36828 14.5803 8.20886 14.6547 8.03923 14.6646C7.86961 14.6746 7.70258 14.6194 7.57227 14.5103C7.44197 14.4013 7.35823 14.2466 7.33816 14.0778L7.3335 13.9998V13.3332C7.3335 13.1564 7.40373 12.9868 7.52876 12.8618C7.65378 12.7367 7.82335 12.6665 8.00016 12.6665Z" fill="#181D27"/>
<path d="M12.2085 11.2733L12.2712 11.3286L12.7378 11.7953C12.8574 11.9153 12.9268 12.0763 12.932 12.2456C12.9371 12.4149 12.8777 12.5798 12.7657 12.7068C12.6536 12.8339 12.4975 12.9135 12.3288 12.9296C12.1602 12.9456 11.9918 12.8969 11.8578 12.7933L11.7952 12.738L11.3285 12.2713C11.2134 12.1565 11.1443 12.0035 11.1341 11.8413C11.1239 11.6791 11.1734 11.5187 11.2731 11.3903C11.3729 11.262 11.5161 11.1745 11.6758 11.1444C11.8356 11.1142 12.0008 11.1435 12.1405 11.2266L12.2085 11.2733Z" fill="#181D27"/>
<path d="M4.67132 11.3287C4.78611 11.4435 4.85506 11.5963 4.86525 11.7583C4.87543 11.9203 4.82616 12.0805 4.72665 12.2087L4.67132 12.2714L4.20465 12.7381C4.08468 12.8576 3.9237 12.9271 3.7544 12.9322C3.5851 12.9374 3.42018 12.8779 3.29314 12.7659C3.16609 12.6539 3.08645 12.4977 3.07039 12.3291C3.05433 12.1605 3.10305 11.9921 3.20665 11.8581L3.26199 11.7954L3.72865 11.3287C3.85367 11.2038 4.02321 11.1335 4.19999 11.1335C4.37676 11.1335 4.5463 11.2038 4.67132 11.3287Z" fill="#181D27"/>
<path d="M2.66658 7.3335C2.8365 7.33368 2.99993 7.39875 3.12349 7.51539C3.24705 7.63204 3.3214 7.79146 3.33136 7.96109C3.34132 8.13072 3.28613 8.29775 3.17707 8.42805C3.06801 8.55835 2.91331 8.64209 2.74458 8.66216L2.66658 8.66683H1.99991C1.82999 8.66664 1.66656 8.60158 1.543 8.48493C1.41944 8.36828 1.34509 8.20886 1.33513 8.03923C1.32517 7.86961 1.38036 7.70258 1.48942 7.57227C1.59848 7.44197 1.75318 7.35823 1.92191 7.33816L1.99991 7.3335H2.66658Z" fill="#181D27"/>
<path d="M14.0001 7.3335C14.17 7.33368 14.3334 7.39875 14.457 7.51539C14.5805 7.63204 14.6549 7.79146 14.6649 7.96109C14.6748 8.13072 14.6196 8.29775 14.5106 8.42805C14.4015 8.55835 14.2468 8.64209 14.0781 8.66216L14.0001 8.66683H13.3334C13.1635 8.66664 13.0001 8.60158 12.8765 8.48493C12.7529 8.36828 12.6786 8.20886 12.6686 8.03923C12.6587 7.86961 12.7139 7.70258 12.8229 7.57227C12.932 7.44197 13.0867 7.35823 13.2554 7.33816L13.3334 7.3335H14.0001Z" fill="#181D27"/>
<path d="M4.14208 3.20665L4.20475 3.26198L4.67142 3.72865C4.79098 3.84862 4.8604 4.00961 4.86557 4.17891C4.87074 4.34821 4.81127 4.51312 4.69925 4.64017C4.58723 4.76721 4.43105 4.84685 4.26243 4.86292C4.09382 4.87898 3.92541 4.83026 3.79142 4.72665L3.72875 4.67132L3.26208 4.20465C3.14748 4.08977 3.07871 3.93703 3.06866 3.77507C3.05862 3.61311 3.10799 3.45305 3.20753 3.32489C3.30706 3.19673 3.44992 3.10927 3.60933 3.07891C3.76874 3.04855 3.93374 3.07738 4.07342 3.15998L4.14208 3.20665Z" fill="#181D27"/>
<path d="M12.7382 3.26233C12.853 3.37712 12.922 3.52986 12.9321 3.69188C12.9423 3.85389 12.8931 4.01406 12.7935 4.14233L12.7382 4.205L12.2715 4.67166C12.1516 4.79123 11.9906 4.86065 11.8213 4.86582C11.652 4.87098 11.4871 4.81152 11.36 4.6995C11.233 4.58747 11.1533 4.4313 11.1373 4.26268C11.1212 4.09406 11.1699 3.92566 11.2735 3.79166L11.3289 3.729L11.7956 3.26233C11.9206 3.13735 12.0901 3.06714 12.2669 3.06714C12.4437 3.06714 12.6132 3.13735 12.7382 3.26233Z" fill="#181D27"/>
<path d="M8.00016 1.3335C8.16345 1.33352 8.32105 1.39347 8.44308 1.50197C8.5651 1.61048 8.64306 1.76 8.66216 1.92216L8.66683 2.00016V2.66683C8.66664 2.83675 8.60158 3.00018 8.48493 3.12374C8.36828 3.2473 8.20886 3.32165 8.03923 3.33161C7.86961 3.34157 7.70258 3.28638 7.57227 3.17732C7.44197 3.06826 7.35823 2.91356 7.33816 2.74483L7.3335 2.66683V2.00016C7.3335 1.82335 7.40373 1.65378 7.52876 1.52876C7.65378 1.40373 7.82335 1.3335 8.00016 1.3335Z" fill="#181D27"/>
<path d="M7.99984 4.6665C8.65296 4.66647 9.2917 4.8583 9.83672 5.21817C10.3817 5.57804 10.809 6.0901 11.0655 6.69074C11.322 7.29139 11.3964 7.95415 11.2795 8.59671C11.1625 9.23927 10.8594 9.83332 10.4077 10.3051C9.95605 10.7768 9.37573 11.1055 8.73886 11.2503C8.10199 11.395 7.43662 11.3495 6.82539 11.1193C6.21417 10.8892 5.68403 10.4846 5.30081 9.95568C4.91759 9.42681 4.69818 8.79701 4.66984 8.1445L4.6665 7.99984L4.66984 7.85517C4.70712 6.997 5.07424 6.18636 5.69465 5.59228C6.31506 4.9982 7.14086 4.66655 7.99984 4.6665Z" fill="#181D27"/>
</svg>
