<svg width="16" height="16" viewBox="0 0 16 16" fill="none" xmlns="http://www.w3.org/2000/svg">
<path d="M11.3346 6.66667V5.33333C11.3346 3.49238 9.84225 2 8.0013 2C6.16035 2 4.66797 3.49238 4.66797 5.33333V6.66667M8.0013 9.66667V11M5.86797 14H10.1346C11.2547 14 11.8148 14 12.2426 13.782C12.6189 13.5903 12.9249 13.2843 13.1166 12.908C13.3346 12.4802 13.3346 11.9201 13.3346 10.8V9.86667C13.3346 8.74656 13.3346 8.18651 13.1166 7.75869C12.9249 7.38236 12.6189 7.0764 12.2426 6.88465C11.8148 6.66667 11.2547 6.66667 10.1346 6.66667H5.86797C4.74786 6.66667 4.18781 6.66667 3.75999 6.88465C3.38366 7.0764 3.0777 7.38236 2.88596 7.75869C2.66797 8.18651 2.66797 8.74656 2.66797 9.86667V10.8C2.66797 11.9201 2.66797 12.4802 2.88596 12.908C3.0777 13.2843 3.38366 13.5903 3.75999 13.782C4.18781 14 4.74786 14 5.86797 14Z" stroke="#A4A7AE" stroke-width="1.5" stroke-linecap="round" stroke-linejoin="round"/>
</svg>
